# xmcd
#
# Track frame offsets:
#	150
#	12265
#	28185
#	42168
#	57665
#	69173
#	82981
#	98780
#	111513
#	125127
#	139919
#	152389
#	165235
#	177656
#	190216
#	201393
#
# Disc length: 2866
#
# Revision: 3
# Processed by: cddbd v1.5.1PL0 Copyright (c) Steve Scherf et al.
# Submitted via: WhereIsIt 3.51
# Normalized: r2:DSETVAR1,TDELIM( - )
#
DISCID=df0b3010
DTITLE=Various Artist - Nothing But the Blues: Disc 02
DYEAR=1900
DGENRE=
TTITLE0=Richard M. Jones - Trouble in mind
TTITLE1=Genevieve Davis - Haven't got a dollar to pay your house rent
TTITLE2=Richard Rabbit Brown James - Alley blues
TTITLE3=Lizzie Miles - I hate a man like you
TTITLE4=New Orleans Willie Jackson - Charleston hound
TTITLE5=Esther Bigeou - That twa twa tune
TTITLE6=Walter Fats Pichon - Doggin' That Thing
TTITLE7=Blue Lu Barker - New Orleans Blues
TTITLE8=Clarence Williams - A pane in the glass
TTITLE9=New Orleans Willie Jackson - Old new Orlean blues
TTITLE10=Little brother Montgomery - Something keeps a-worryin'
TTITLE11=Little brother Montgomery - Pleading blues
TTITLE12=Esther Bigeou - West Indies Blues
TTITLE13=Christina Gray - The reverend in my man
TTITLE14=Creole George Guesnon - Goodbye, good luck to you
TTITLE15=Sidney Bechet - Sidney's blues
EXTD=
EXTT0=
EXTT1=
EXTT2=
EXTT3=
EXTT4=
EXTT5=
EXTT6=
EXTT7=
EXTT8=
EXTT9=
EXTT10=
EXTT11=
EXTT12=
EXTT13=
EXTT14=
EXTT15=
PLAYORDER=
